<svg xmlns="http://www.w3.org/2000/svg" xmlns:xlink="http://www.w3.org/1999/xlink" width="22.057" height="22" viewBox="0 0 22.057 22">
  <defs>
    <linearGradient id="linear-gradient" x1="0.146" y1="0.146" x2="0.854" y2="0.854" gradientUnits="objectBoundingBox">
      <stop offset="0" stop-color="#fae100"/>
      <stop offset="0.15" stop-color="#fcb720"/>
      <stop offset="0.3" stop-color="#ff7950"/>
      <stop offset="0.5" stop-color="#ff1c74"/>
      <stop offset="1" stop-color="#6c1cd1"/>
    </linearGradient>
  </defs>
  <g id="Layer_2" data-name="Layer 2" transform="translate(-0.264 0)">
    <g id="Circle" transform="translate(-0.001 0)">
      <g id="_03.Instagram" data-name="03.Instagram">
        <rect id="Background" width="22" height="22" rx="11" transform="translate(0.321 0)" fill="url(#linear-gradient)"/>
        <g id="Group_21343" data-name="Group 21343" transform="translate(0.264 0.262)">
          <path id="Shade" d="M18.833,3.674a38.284,38.284,0,0,1-6.546,8.6,38.335,38.335,0,0,1-8.6,6.542q-.27-.235-.524-.489A10.737,10.737,0,1,1,18.346,3.144q.253.256.488.53Z" transform="translate(-0.016 0)" fill="#fff" opacity="0.1"/>
          <g id="Icon" transform="translate(5.084 5.086)">
            <path id="Path_51946" data-name="Path 51946" d="M44.195,36H39.108A3.108,3.108,0,0,0,36,39.108v5.086A3.108,3.108,0,0,0,39.108,47.3h5.086A3.108,3.108,0,0,0,47.3,44.195V39.108A3.108,3.108,0,0,0,44.195,36Zm2.119,7.748a2.566,2.566,0,0,1-2.566,2.566H39.555a2.566,2.566,0,0,1-2.566-2.566V39.555a2.566,2.566,0,0,1,2.566-2.566h4.193a2.566,2.566,0,0,1,2.566,2.566Z" transform="translate(-36 -36)" fill="#fff"/>
            <path id="Path_51947" data-name="Path 51947" d="M60.56,56.21l-.027-.027-.023-.023A2.848,2.848,0,0,0,58.5,55.33a2.9,2.9,0,0,0-2.879,2.92,2.932,2.932,0,0,0,.848,2.064,2.853,2.853,0,0,0,2.037.848A2.929,2.929,0,0,0,60.56,56.21ZM58.5,60.166a1.916,1.916,0,1,1,1.889-1.916A1.916,1.916,0,0,1,58.5,60.166Z" transform="translate(-52.847 -52.599)" fill="#fff"/>
            <path id="Path_51948" data-name="Path 51948" d="M94.11,50.172a.689.689,0,0,1-.685.7.68.68,0,0,1-.483-.2.7.7,0,0,1,.485-1.185.681.681,0,0,1,.437.158l.014.014a.431.431,0,0,1,.062.062l.016.017A.7.7,0,0,1,94.11,50.172Z" transform="translate(-84.724 -47.575)" fill="#fff"/>
          </g>
        </g>
      </g>
    </g>
  </g>
</svg>
